<svg width="48" height="48" viewBox="0 0 48 48" fill="none" xmlns="http://www.w3.org/2000/svg">
<rect opacity="0.08" width="48" height="48" rx="6" fill="#B182BC"/>
<path d="M19.9111 13.6001C15.7355 15.2912 12.8 19.2976 12.8 23.9708C12.8 30.1726 17.97 35.2001 24.3476 35.2001C29.2407 35.2001 33.423 32.2406 35.1049 28.0619C35.1375 27.9808 35.1692 27.8992 35.2 27.8171" stroke="black" stroke-width="2.39928" stroke-linecap="round"/>
<path d="M25.3788 12.5902C30.4799 13.4937 34.5063 17.5201 35.4098 22.6212C35.4536 22.8687 35.3798 23.0893 35.2083 23.2704C35.0273 23.4616 34.7385 23.6003 34.4007 23.6003H25.5993C24.9368 23.6003 24.3997 23.0632 24.3997 22.4007V13.5992C24.3997 13.2615 24.5383 12.9727 24.7295 12.7916C24.9106 12.6201 25.1312 12.5463 25.3788 12.5902Z" stroke="#B182BC" stroke-width="2.39928" stroke-linecap="round" stroke-linejoin="round"/>
</svg>
