<svg class="aX-+j-+S" viewBox="0 0 182 27" fill="none" xmlns="http://www.w3.org/2000/svg" href="/"><g clip-path="url(#headerLogoDolyame)" fill="#000"><path d="M146.228 12.548l-7.012-7.766h-4.099v17.981h4.28V11.291l6.401 6.797h.791l6.292-6.797v11.472h4.28V4.782h-4.099l-6.834 7.766zM177.552 4.782l-10.608 11.687V4.782h-4.28v17.981h3.921l10.608-11.687v11.687h4.28V4.782h-3.921zM112.064 11.361c0 2.863 1.572 5.119 3.984 6.064l-4.523 5.338h5.238l4.115-4.856h4.453v4.856h4.28V4.782h-10.896c-4.063 0-6.651 2.768-6.651 6.58zm13.27-2.619v5.317h-5.826c-1.943 0-2.986-1.079-2.986-2.66 0-1.583 1.08-2.662 2.986-2.662l5.826.005zM92.176 8.378c-.262 6.184-1.572 10.176-4.136 10.176h-.642v4.317l.684.036c5.142.286 7.984-4.209 8.45-14.026h6.763v13.882h4.272V4.782H92.32l-.144 3.596zM76.065 4.53c-5.789 0-9.954 3.992-9.954 9.241 0 5.43 4.532 9.28 9.954 9.28 5.647 0 10.034-4.065 10.034-9.28 0-5.215-4.387-9.24-10.034-9.24zm0 14.205c-3.272 0-5.5-2.122-5.5-4.964 0-2.913 2.23-4.977 5.5-4.977 3.269 0 5.574 2.159 5.574 4.977 0 2.819-2.337 4.964-5.574 4.964zM61.572 4.815H46.467l-.145 3.597c-.214 5.18-1.571 10.108-4.136 10.178L41 18.627v8.382L45.317 27v-4.235h14.995V27h4.353v-8.41h-3.093V4.815zm-4.28 13.775H48.16c1.545-2.336 2.373-5.718 2.517-9.673h6.616v9.673zM31 .5h-4v22h4V.5zM4 5H0v22h4V5zM13 3.5H9v22h4v-22zM22 2h-4v22h4V2z"></path></g><defs><clipPath id="headerLogoDolyame"><path fill="#fff" d="M0 0h182v27H0z"></path></clipPath></defs></svg>