<svg xmlns="http://www.w3.org/2000/svg" width="18" height="72" viewBox="0 0 18 72" fill="none">
<g clip-path="url(#clip0_419_1619)">
<path d="M9 17.251C13.5563 17.251 17.25 13.5573 17.25 9.00098C17.25 4.44463 13.5563 0.750977 9 0.750977C4.44365 0.750977 0.75 4.44463 0.75 9.00098C0.75 13.5573 4.44365 17.251 9 17.251Z" stroke="#6FADAA" stroke-width="1.5"/>
<path d="M9 17.251C13.5563 17.251 17.25 13.5573 17.25 9.00098C17.25 4.44463 13.5563 0.750977 9 0.750977C4.44365 0.750977 0.75 4.44463 0.75 9.00098C0.75 13.5573 4.44365 17.251 9 17.251Z" stroke="#6FADAA" stroke-width="1.5"/>
<path d="M0 9.00098H18V18.001H0V9.00098Z" fill="white"/>
<path d="M0 0.000976562H9V18.001H0V0.000976562Z" fill="white"/>
<path d="M9 13.001C11.2091 13.001 13 11.2101 13 9.00098C13 6.79184 11.2091 5.00098 9 5.00098C6.79086 5.00098 5 6.79184 5 9.00098C5 11.2101 6.79086 13.001 9 13.001Z" fill="#242424"/>
</g>
<g clip-path="url(#clip1_419_1619)">
<path d="M9 35.251C13.5563 35.251 17.25 31.5573 17.25 27.001C17.25 22.4446 13.5563 18.751 9 18.751C4.44365 18.751 0.75 22.4446 0.75 27.001C0.75 31.5573 4.44365 35.251 9 35.251Z" stroke="#6FADAA" stroke-width="1.5"/>
<path d="M0 18.001H9V36.001H0V18.001Z" fill="white"/>
<path d="M9 31.001C11.2091 31.001 13 29.2101 13 27.001C13 24.7918 11.2091 23.001 9 23.001C6.79086 23.001 5 24.7918 5 27.001C5 29.2101 6.79086 31.001 9 31.001Z" fill="#242424"/>
</g>
<path d="M9 53.251C13.5563 53.251 17.25 49.5573 17.25 45.001C17.25 40.4446 13.5563 36.751 9 36.751C4.44365 36.751 0.75 40.4446 0.75 45.001C0.75 49.5573 4.44365 53.251 9 53.251Z" stroke="#6FADAA" stroke-width="1.5"/>
<path d="M0 36.001H9V45.001H0V36.001Z" fill="white"/>
<path d="M9 49.001C11.2091 49.001 13 47.2101 13 45.001C13 42.7918 11.2091 41.001 9 41.001C6.79086 41.001 5 42.7918 5 45.001C5 47.2101 6.79086 49.001 9 49.001Z" fill="#242424"/>
<path d="M9 71.251C13.5563 71.251 17.25 67.5573 17.25 63.001C17.25 58.4446 13.5563 54.751 9 54.751C4.44365 54.751 0.75 58.4446 0.75 63.001C0.75 67.5573 4.44365 71.251 9 71.251Z" stroke="#6FADAA" stroke-width="1.5"/>
<path fill-rule="evenodd" clip-rule="evenodd" d="M8.11394 64.1752L6.33094 62.6892C6.16887 62.5568 5.96314 62.4899 5.75421 62.5016C5.54529 62.5132 5.34829 62.6026 5.20194 62.7522C5.13255 62.824 5.07889 62.9095 5.04441 63.0032C5.00993 63.0969 4.99537 63.1968 5.00168 63.2965C5.00798 63.3961 5.03501 63.4934 5.08103 63.582C5.12705 63.6707 5.19105 63.7487 5.26894 63.8112L7.66894 65.8112C7.83411 65.9466 8.04479 66.0137 8.25783 65.9988C8.47088 65.984 8.67018 65.8882 8.81494 65.7312L12.8149 61.2312C12.882 61.157 12.9328 61.0697 12.9642 60.9748C12.9956 60.8799 13.0068 60.7794 12.9971 60.6799C12.9874 60.5804 12.957 60.484 12.9079 60.397C12.8588 60.3099 12.7921 60.234 12.7119 60.1742C12.5461 60.0463 12.3384 59.9852 12.1298 60.003C11.9211 60.0208 11.7267 60.1161 11.5849 60.2702L8.11494 64.1752H8.11394Z" fill="#6FADAA"/>
<defs>
<clipPath id="clip0_419_1619">
<rect width="18" height="18" fill="white"/>
</clipPath>
<clipPath id="clip1_419_1619">
<rect width="18" height="18" fill="white" transform="translate(0 18)"/>
</clipPath>
</defs>
</svg>