<svg width="48" height="48" viewBox="0 0 48 48" fill="none" xmlns="http://www.w3.org/2000/svg">
<rect opacity="0.08" width="48" height="48" rx="6" fill="#6FADAA"/>
<path d="M22.6154 23.4776V15.2502C22.6154 14.4765 21.6264 14.1537 21.1699 14.7783L13.7292 24.9616C13.3431 25.49 13.7205 26.2332 14.3749 26.2332H19.7849C20.2266 26.2332 20.5847 26.5913 20.5847 27.0329L20.5847 35.048C20.5847 35.8313 21.5941 36.1477 22.0412 35.5045L29.527 24.7338C29.8955 24.2035 29.516 23.4776 28.8702 23.4776H26.3667" stroke="black" stroke-width="2.39928" stroke-linecap="round" stroke-linejoin="round"/>
<path d="M31.9999 10.3999L33.4526 13.7472L36.7999 15.1999L33.4526 16.6526L31.9999 19.9999L30.5473 16.6526L27.2 15.1999L30.5473 13.7472L31.9999 10.3999Z" stroke="#6FADAA" stroke-width="2.39928" stroke-linejoin="round"/>
</svg>
