<svg width="17" height="14" viewBox="0 0 17 14" fill="none" xmlns="http://www.w3.org/2000/svg">
<path d="M17 4.032V11.1562C17 11.8826 16.7301 12.5815 16.2455 13.1095C15.7609 13.6374 15.0984 13.9545 14.3939 13.9956L14.2375 14H2.7625C2.05688 14 1.378 13.7221 0.865104 13.2233C0.352212 12.7244 0.0441989 12.0425 0.0042501 11.3173L0 11.1562V4.032L8.2042 8.456C8.29547 8.50521 8.39697 8.53092 8.5 8.53092C8.60303 8.53092 8.70453 8.50521 8.7958 8.456L17 4.032ZM2.7625 2.06544e-08H14.2375C14.9222 -8.48878e-05 15.5826 0.261621 16.0905 0.734359C16.5985 1.2071 16.9177 1.85717 16.9864 2.5585L8.5 7.13475L0.0136 2.5585C0.0794949 1.88502 0.376592 1.25783 0.851488 0.789655C1.32638 0.321483 1.94793 0.0430386 2.6044 0.00437512L2.7625 2.06544e-08H14.2375H2.7625Z" fill="black"/>
</svg>
