<svg width="49" height="29" viewBox="0 0 49 29" fill="none" xmlns="http://www.w3.org/2000/svg">
<g clip-path="url(#clip0_504_20)">
<path d="M18 8C18 4.13401 21.134 1 25 1H41C44.866 1 48 4.13401 48 8V22C48 25.866 44.866 29 41 29H25C21.134 29 18 25.866 18 22V17.2529V8Z" fill="#CC9966"/>
<path d="M12.1801 4.11588H31.3066V21.5936H12.1801V14.261V4.11588Z" fill="#CC9966"/>
<path d="M12.8396 9.06241H31.9662V26.5401H12.8396V19.2075V9.06241Z" fill="#CC9966"/>
<path d="M5.91443 8.07309H25.041V19.9447H5.91443V14.9641V8.07309Z" fill="#CC9966"/>
<path d="M7.23352 10.3815H23.7219V22.2531H7.23352V17.2725V10.3815Z" fill="#CC9966"/>
<path d="M3.93585 10.3815H20.4243V19.9447H3.93585V15.9326V10.3815Z" fill="#CC9966"/>
<path d="M19.787 29.1512L42.5191 29.1041C44.4519 29.0536 45.957 28.3757 47.0343 27.0704C47.9962 25.905 48.472 24.6126 48.4615 23.1933L48.2587 6.6848C48.1847 5.05617 47.5726 3.64971 46.4226 2.4654C45.3664 1.35847 43.9296 0.760345 42.1122 0.671038L19.3801 0.71815C16.7862 0.61494 14.4704 1.3682 12.4325 2.97794L2.16055 10.8407C1.10982 11.5409 0.589668 12.6007 0.600096 14.02L0.673454 16.0791C0.611845 17.2039 1.16688 18.2498 2.33856 19.2169L12.8533 26.9551C15.0609 28.3854 17.3722 29.1175 19.787 29.1512ZM4.58116 13.7791L15.1092 5.89258C16.19 5.06043 17.6692 4.5571 19.5467 4.38257L42.2789 4.33546C42.9616 4.272 43.4796 4.50361 43.8328 5.03029C44.114 5.26239 44.3393 5.80098 44.5085 6.64604L44.7113 23.1545C44.7232 23.7129 44.525 24.2156 44.1168 24.6624C43.7086 25.1092 43.2443 25.3138 42.7239 25.2761L19.9918 25.3232C18.1359 25.2805 16.6221 24.7756 15.4504 23.8085L4.53909 15.978L4.58116 13.7791ZM12.792 13.8552C13.2138 14.2033 13.4498 14.6333 13.5002 15.1451C13.5505 15.6569 13.4025 16.1226 13.0563 16.5421C12.71 16.9617 12.2808 17.1952 11.7687 17.2428C11.2567 17.2904 10.7897 17.1401 10.3679 16.792C9.94613 16.4438 9.71006 16.0139 9.65971 15.5021C9.60937 14.9903 9.75734 14.5246 10.1036 14.105C10.4499 13.6855 10.8791 13.4519 11.3912 13.4043C11.9032 13.3567 12.3702 13.507 12.792 13.8552ZM23.9016 21.7317L39.5724 11.6241L39.9764 11.1346C40.5151 10.482 40.5676 9.70236 40.1339 8.79579C39.8744 8.34648 39.4802 8.06032 38.9514 7.93732C38.4225 7.81431 37.9339 7.88125 37.4855 8.13814L21.8147 18.2458C21.3194 18.464 21.002 18.8486 20.8624 19.3996C20.7228 19.9505 20.7828 20.4507 21.0423 20.9C21.8894 22.0694 22.8425 22.3467 23.9016 21.7317ZM39.8849 16.1142C40.4941 16.6171 40.8482 17.2621 40.9472 18.0491C41.0461 18.8361 40.8263 19.556 40.2876 20.2086C39.7489 20.8612 39.0838 21.2136 38.2923 21.2656C37.5008 21.3177 36.8004 21.0923 36.1911 20.5894C35.5818 20.0865 35.2374 19.4299 35.1576 18.6195C35.0779 17.8092 35.2882 17.101 35.7884 16.495C36.2886 15.889 36.944 15.5483 37.7548 15.4729C38.5656 15.3976 39.2756 15.6113 39.8849 16.1142ZM24.24 10.7251C24.8493 11.228 25.1938 11.8846 25.2735 12.695C25.3532 13.5053 25.1429 14.2135 24.6427 14.8195C24.1425 15.4255 23.4871 15.7662 22.6763 15.8416C21.8655 15.9169 21.1555 15.7032 20.5462 15.2003C19.937 14.6974 19.5829 14.0524 19.4839 13.2654C19.385 12.4784 19.6048 11.7585 20.1435 11.1059C20.6822 10.4533 21.3473 10.1009 22.1388 10.0489C22.9303 9.9968 23.6307 10.2222 24.24 10.7251Z" fill="white"/>
</g>
<defs>
<clipPath id="clip0_504_20">
<rect width="49" height="29" fill="white"/>
</clipPath>
</defs>
</svg>
