<svg width="42" height="42" viewBox="0 0 42 42" fill="none" xmlns="http://www.w3.org/2000/svg">
<path d="M9.78088 13.8752H22.9737V25.9306H9.78088V20.8729V13.8752Z" fill="#FD5656"/>
<path d="M10.2358 17.2871H23.4286V29.3425H10.2358V24.2848V17.2871Z" fill="#FD5656"/>
<path d="M5.45898 16.6047H18.6518V24.7933H5.45898V21.3579V16.6047Z" fill="#FD5656"/>
<path d="M6.36902 18.1969H17.7421V26.3855H6.36902V22.9501V18.1969Z" fill="#FD5656"/>
<path d="M4.09424 18.1969H15.4673V24.7933H4.09424V22.0259V18.1969Z" fill="#FD5656"/>
<path d="M15.0278 31.1436L30.7076 31.1111C32.0407 31.0762 33.0789 30.6086 33.822 29.7083C34.4855 28.9045 34.8136 28.013 34.8064 27.034L34.6665 15.6471C34.6155 14.5237 34.1933 13.5536 33.4001 12.7367C32.6715 11.9732 31.6805 11.5606 30.4269 11.499L14.7472 11.5315C12.958 11.4603 11.3606 11.9799 9.95501 13.0903L2.86979 18.5137C2.14503 18.9967 1.78625 19.7277 1.79345 20.7067L1.84405 22.1269C1.80155 22.9028 2.18439 23.6242 2.99257 24.2913L10.2452 29.6288C11.768 30.6154 13.3622 31.1203 15.0278 31.1436ZM4.53943 20.5405L11.8013 15.1007C12.5468 14.5267 13.5671 14.1795 14.8621 14.0591L30.5419 14.0266C31.0128 13.9828 31.3701 14.1426 31.6137 14.5059C31.8077 14.666 31.9631 15.0375 32.0798 15.6204L32.2197 27.0073C32.2279 27.3925 32.0912 27.7391 31.8096 28.0473C31.5281 28.3555 31.2078 28.4966 30.8488 28.4706L15.1691 28.5031C13.889 28.4737 12.8448 28.1254 12.0366 27.4584L4.51042 22.0572L4.53943 20.5405ZM10.2029 20.5929C10.4939 20.8331 10.6567 21.1297 10.6914 21.4827C10.7262 21.8357 10.6241 22.1569 10.3852 22.4463C10.1464 22.7357 9.85035 22.8968 9.49715 22.9296C9.14394 22.9625 8.82187 22.8588 8.53093 22.6187C8.23998 22.3785 8.07715 22.0819 8.04242 21.7289C8.0077 21.3759 8.10976 21.0547 8.34862 20.7653C8.58748 20.4759 8.88351 20.3148 9.23671 20.282C9.58991 20.2491 9.91198 20.3528 10.2029 20.5929ZM17.8659 26.0259L28.675 19.054L28.9537 18.7164C29.3253 18.2662 29.3615 17.7285 29.0623 17.1032C28.8833 16.7933 28.6115 16.5959 28.2467 16.511C27.8819 16.4262 27.5449 16.4724 27.2356 16.6496L16.4265 23.6214C16.0849 23.7719 15.8659 24.0372 15.7696 24.4173C15.6733 24.7973 15.7147 25.1423 15.8937 25.4522C16.478 26.2588 17.1354 26.4501 17.8659 26.0259ZM28.8906 22.1511C29.3108 22.498 29.5551 22.9429 29.6233 23.4858C29.6916 24.0286 29.5399 24.5251 29.1684 24.9753C28.7968 25.4255 28.3381 25.6685 27.7921 25.7044C27.2461 25.7403 26.763 25.5848 26.3428 25.238C25.9225 24.8911 25.6849 24.4382 25.6299 23.8792C25.5749 23.3203 25.72 22.8318 26.065 22.4138C26.41 21.9958 26.8621 21.7608 27.4213 21.7088C27.9806 21.6568 28.4703 21.8043 28.8906 22.1511ZM18.0993 18.4339C18.5196 18.7808 18.7572 19.2337 18.8122 19.7927C18.8672 20.3516 18.7222 20.8401 18.3771 21.2581C18.0321 21.6761 17.58 21.9111 17.0208 21.9631C16.4615 22.0151 15.9718 21.8676 15.5515 21.5208C15.1313 21.1739 14.887 20.729 14.8188 20.1861C14.7505 19.6433 14.9022 19.1468 15.2737 18.6966C15.6453 18.2464 16.1041 18.0034 16.65 17.9675C17.196 17.9316 17.6791 18.0871 18.0993 18.4339Z" fill="white"/>
</svg>
