<svg width="24" height="24" viewBox="0 0 24 24" fill="none" xmlns="http://www.w3.org/2000/svg">
<rect width="23.4555" height="23.4555" rx="3" fill="black"/>
<rect x="2.93195" y="5.86389" width="17.5917" height="12.7051" fill="white"/>
<path fill-rule="evenodd" clip-rule="evenodd" d="M23.4555 11.7278C23.4555 18.2044 18.2044 23.4555 11.7278 23.4555C5.25111 23.4555 0 18.2044 0 11.7278C0 5.25111 5.25111 0 11.7278 0C18.2044 0 23.4555 5.25111 23.4555 11.7278ZM12.148 8.65803C11.0075 9.13202 8.72742 10.1142 5.30877 11.6037C4.75366 11.8245 4.46242 12.0405 4.43603 12.2516C4.39107 12.6093 4.83868 12.75 5.44657 12.9406C5.52964 12.967 5.61565 12.9934 5.70361 13.0227C6.3027 13.2172 7.10801 13.4449 7.5263 13.4537C7.90647 13.4615 8.33063 13.3052 8.79876 12.9846C11.9926 10.8277 13.6414 9.73796 13.7449 9.7145C13.8182 9.69789 13.9199 9.67639 13.9883 9.73796C14.0567 9.79855 14.0499 9.91388 14.043 9.94515C13.9981 10.1338 12.2448 11.7649 11.3359 12.6093C11.0524 12.8722 10.8521 13.0589 10.8111 13.1019C10.7192 13.1967 10.6254 13.2876 10.5354 13.3745C9.97838 13.9101 9.56204 14.3128 10.5589 14.9695C11.0378 15.2852 11.4209 15.5461 11.803 15.8061C12.2203 16.0905 12.6367 16.3739 13.1762 16.7277C13.313 16.8176 13.4439 16.9105 13.572 17.0014C14.0577 17.3483 14.4945 17.6591 15.034 17.6102C15.3468 17.5809 15.6712 17.2867 15.8354 16.4081C16.2234 14.3304 16.9877 9.8308 17.1646 7.97586C17.1753 7.82185 17.1688 7.66712 17.145 7.51457C17.1308 7.39136 17.0708 7.27799 16.9769 7.19694C16.8372 7.0826 16.6202 7.05816 16.5225 7.06012C16.0817 7.06794 15.4054 7.30347 12.148 8.65803Z" fill="black"/>
</svg>
