<svg width="23" height="23" viewBox="0 0 23 23" fill="none" xmlns="http://www.w3.org/2000/svg">
<path d="M15.03 0H7.96997C1.5273 0 0 1.5273 0 7.96997V15.03C0 21.4727 1.5273 23 7.96997 23H15.03C21.4727 23 23 21.4727 23 15.03V7.96997C23 1.5273 21.4576 0 15.03 0ZM18.5676 16.4071H16.898C16.2655 16.4071 16.0707 15.9054 14.933 14.7526C13.9448 13.7945 13.507 13.6673 13.2634 13.6673C12.9191 13.6673 12.8214 13.7644 12.8214 14.2366V15.7452C12.8214 16.1498 12.6942 16.3927 11.6233 16.3927C9.85232 16.3927 7.88732 15.3218 6.50952 13.3266C4.43167 10.4029 3.86316 8.2129 3.86316 7.7601C3.86316 7.51645 3.96019 7.28862 4.42808 7.28862H6.10128C6.52461 7.28862 6.6856 7.48339 6.85019 7.93619C7.67745 10.3245 9.05525 12.4167 9.62376 12.4167C9.83363 12.4167 9.93066 12.3197 9.93066 11.7843V9.31758C9.86669 8.17984 9.26799 8.08209 9.26799 7.67817C9.26799 7.48339 9.42899 7.28862 9.68701 7.28862H12.3183C12.674 7.28862 12.8048 7.48339 12.8048 7.90241V11.2301C12.8048 11.5895 12.9658 11.7167 13.0629 11.7167C13.2727 11.7167 13.4524 11.5895 13.8413 11.1999C15.043 9.85232 15.904 7.77448 15.904 7.77448C16.0161 7.53083 16.2109 7.30299 16.6342 7.30299H18.3074C18.8091 7.30299 18.9212 7.56101 18.8091 7.92038C18.5992 8.89353 16.5516 11.7835 16.5516 11.7835C16.3755 12.0753 16.3079 12.2026 16.5516 12.5281C16.7313 12.7718 17.3156 13.2771 17.7044 13.7299C18.4195 14.542 18.9694 15.2234 19.116 15.6949C19.2806 16.1627 19.0377 16.4064 18.5655 16.4064L18.5676 16.4071Z" fill="black"/>
</svg>
