<svg width="24" height="23" viewBox="0 0 24 23" fill="none" xmlns="http://www.w3.org/2000/svg">
<path d="M11.9556 4.66161C8.2232 4.66161 5.18905 7.69576 5.18391 11.4281C5.18391 12.7065 5.54329 13.954 6.22097 15.027L6.38012 15.2837L5.69731 17.7788L8.25914 17.1063L8.50557 17.2551C9.54262 17.8712 10.7337 18.1998 11.9504 18.1998H11.9556C15.6828 18.1998 18.7991 15.1656 18.7991 11.4333C18.7991 9.62612 18.0187 7.92679 16.7404 6.64844C15.4569 5.36496 13.7627 4.66161 11.9556 4.66161ZM15.9344 14.3339C15.7649 14.8114 14.9538 15.2426 14.5636 15.2991C13.9167 15.3967 13.4136 15.3453 12.125 14.7908C10.0868 13.9078 8.752 11.8542 8.64932 11.7208C8.54664 11.5873 7.81762 10.617 7.81762 9.61585C7.81762 8.61473 8.34128 8.12187 8.53124 7.91652C8.71606 7.71116 8.93682 7.65982 9.07543 7.65982C9.20891 7.65982 9.34753 7.65982 9.46561 7.66496C9.58883 7.67009 9.75824 7.61875 9.92253 8.01406C10.092 8.41964 10.4975 9.42076 10.5489 9.52344C10.6002 9.62612 10.6361 9.7442 10.5643 9.87768C10.1741 10.658 9.75825 10.6272 9.96874 10.9866C10.7542 12.3368 11.5397 12.804 12.7359 13.4047C12.9413 13.5074 13.0594 13.492 13.1774 13.3533C13.2955 13.2199 13.6857 12.7578 13.8192 12.5576C13.9527 12.3522 14.0913 12.3882 14.2761 12.4549C14.4609 12.5217 15.462 13.0145 15.6674 13.1172C15.8728 13.2199 16.0062 13.2712 16.0576 13.3533C16.1038 13.4509 16.1038 13.8616 15.9344 14.3339ZM20.9913 0H2.91985C1.55936 0 0.455566 1.10379 0.455566 2.46429V20.5357C0.455566 21.8962 1.55936 23 2.91985 23H20.9913C22.3518 23 23.4556 21.8962 23.4556 20.5357V2.46429C23.4556 1.10379 22.3518 0 20.9913 0ZM11.9504 19.5705C10.5848 19.5705 9.24485 19.2266 8.05892 18.5797L3.74128 19.7143L4.89641 15.4942C4.1828 14.2621 3.80802 12.8605 3.80802 11.423C3.81316 6.93594 7.46338 3.28571 11.9504 3.28571C14.1272 3.28571 16.1705 4.13281 17.7107 5.67299C19.2457 7.21317 20.1699 9.25647 20.1699 11.4333C20.1699 15.9203 16.4375 19.5705 11.9504 19.5705Z" fill="black"/>
</svg>
